<?xml version="1.0" encoding="UTF-8"?>
<svg xmlns="http://www.w3.org/2000/svg" xmlns:xlink="http://www.w3.org/1999/xlink" width="199px" height="60px" viewBox="0 0 199 60" version="1.1">
<g id="surface1">
<path style=" stroke:none;fill-rule:nonzero;fill:rgb(0%,0%,0%);fill-opacity:1;" d="M 1.890625 0.828125 L 10.132812 0.828125 C 14.699219 0.828125 15.789062 2.226562 15.789062 7.320312 L 15.789062 29.601562 C 15.789062 34.59375 14.601562 36.09375 10.132812 36.09375 L 6.953125 36.09375 L 6.953125 59.070312 L 1.890625 59.070312 Z M 9.140625 31.296875 C 10.628906 31.296875 10.828125 30.699219 10.828125 29 L 10.828125 8.019531 C 10.828125 6.324219 10.628906 5.722656 9.140625 5.722656 L 6.953125 5.722656 L 6.953125 31.398438 L 9.140625 31.398438 Z M 9.140625 31.296875 "/>
<path style=" stroke:none;fill-rule:nonzero;fill:rgb(0%,0%,0%);fill-opacity:1;" d="M 18.175781 0.828125 L 23.339844 0.828125 L 23.339844 59.070312 L 18.175781 59.070312 Z M 18.175781 0.828125 "/>
<path style=" stroke:none;fill-rule:nonzero;fill:rgb(0%,0%,0%);fill-opacity:1;" d="M 31.378906 26.300781 L 36.046875 26.300781 L 36.046875 31.097656 L 31.378906 31.097656 L 31.378906 54.277344 L 37.039062 54.277344 L 37.039062 59.070312 L 26.21875 59.070312 L 26.21875 0.828125 L 37.039062 0.828125 L 37.039062 5.625 L 31.378906 5.625 Z M 31.378906 26.300781 "/>
<path style=" stroke:none;fill-rule:nonzero;fill:rgb(0%,0%,0%);fill-opacity:1;" d="M 53.425781 53.578125 C 53.425781 55.671875 53.621094 57.570312 54.117188 59.171875 L 48.957031 59.171875 C 48.363281 58.171875 48.363281 56.175781 48.363281 54.277344 L 48.363281 34.59375 C 48.363281 32.898438 48.0625 31.996094 46.476562 31.996094 L 44.386719 31.996094 L 44.386719 59.171875 L 39.324219 59.171875 L 39.324219 0.828125 L 47.765625 0.828125 C 52.335938 0.828125 53.425781 2.226562 53.425781 7.320312 L 53.425781 23.40625 C 53.425781 27.101562 52.734375 29 50.546875 29.601562 C 52.734375 30.203125 53.425781 31.996094 53.425781 35.792969 Z M 48.460938 8.019531 C 48.460938 6.324219 48.261719 5.722656 46.773438 5.722656 L 44.492188 5.722656 L 44.492188 27.203125 L 46.773438 27.203125 C 48.261719 27.203125 48.460938 26.601562 48.460938 24.90625 Z M 48.460938 8.019531 "/>
<path style=" stroke:none;fill-rule:nonzero;fill:rgb(0%,0%,0%);fill-opacity:1;" d="M 61.367188 52.378906 C 61.367188 54.074219 61.570312 54.675781 63.058594 54.675781 L 63.652344 54.675781 C 65.140625 54.675781 65.34375 54.074219 65.34375 52.378906 L 65.34375 33.796875 L 70.105469 33.796875 L 70.105469 52.976562 C 70.105469 58.074219 68.917969 59.46875 64.449219 59.46875 L 62.164062 59.46875 C 57.496094 59.46875 56.402344 58.074219 56.402344 52.976562 L 56.402344 6.921875 C 56.402344 1.828125 57.597656 0.429688 62.164062 0.429688 L 64.449219 0.429688 C 69.015625 0.429688 70.105469 1.828125 70.105469 6.921875 L 70.105469 23.605469 L 65.34375 23.605469 L 65.34375 7.621094 C 65.34375 5.925781 65.140625 5.324219 63.652344 5.324219 L 63.058594 5.324219 C 61.472656 5.324219 61.367188 5.925781 61.367188 7.621094 Z M 61.367188 52.378906 "/>
<path style=" stroke:none;fill-rule:nonzero;fill:rgb(0%,0%,0%);fill-opacity:1;" d="M 72.886719 0.828125 L 78.054688 0.828125 L 78.054688 59.070312 L 72.886719 59.070312 Z M 72.886719 0.828125 "/>
<path style=" stroke:none;fill-rule:nonzero;fill:rgb(0%,0%,0%);fill-opacity:1;" d="M 86.394531 27.304688 C 85.898438 23.40625 85.597656 19.011719 85.203125 15.214844 C 85.300781 19.011719 85.300781 23.605469 85.300781 27.304688 L 85.300781 59.171875 L 81.03125 59.171875 L 81.03125 0.828125 L 87.683594 0.828125 L 90.460938 25.804688 C 90.859375 29.796875 91.257812 33.894531 91.65625 37.992188 C 91.558594 33.59375 91.453125 29.5 91.453125 25.804688 L 91.453125 0.828125 L 95.925781 0.828125 L 95.925781 59.070312 L 90.265625 59.070312 Z M 86.394531 27.304688 "/>
<path style=" stroke:none;fill-rule:nonzero;fill:rgb(0%,0%,0%);fill-opacity:1;" d="M 105.855469 27.800781 L 112.605469 27.800781 L 112.605469 53.078125 C 112.605469 58.171875 111.417969 59.570312 106.945312 59.570312 L 104.664062 59.570312 C 99.996094 59.570312 98.90625 58.171875 98.90625 53.078125 L 98.90625 6.921875 C 98.90625 1.828125 100.09375 0.429688 104.664062 0.429688 L 106.945312 0.429688 C 111.515625 0.429688 112.605469 1.828125 112.605469 6.921875 L 112.605469 23.605469 L 107.839844 23.605469 L 107.839844 7.621094 C 107.839844 5.925781 107.644531 5.324219 106.152344 5.324219 L 105.554688 5.324219 C 103.96875 5.324219 103.867188 5.925781 103.867188 7.621094 L 103.867188 52.378906 C 103.867188 54.074219 104.066406 54.675781 105.554688 54.675781 L 106.152344 54.675781 C 107.644531 54.675781 107.839844 54.074219 107.839844 52.378906 L 107.839844 32.5 L 105.855469 32.5 Z M 105.855469 27.800781 "/>
<path style=" stroke:none;fill-rule:nonzero;fill:rgb(0%,0%,0%);fill-opacity:1;" d="M 115.390625 6.921875 C 115.390625 1.828125 116.578125 0.429688 121.148438 0.429688 L 123.730469 0.429688 C 128.292969 0.429688 129.488281 1.828125 129.488281 6.921875 L 129.488281 53.078125 C 129.488281 58.171875 128.292969 59.570312 123.730469 59.570312 L 121.148438 59.570312 C 116.480469 59.570312 115.390625 58.171875 115.390625 53.078125 Z M 124.324219 7.621094 C 124.324219 5.925781 124.125 5.324219 122.636719 5.324219 L 122.039062 5.324219 C 120.449219 5.324219 120.351562 5.925781 120.351562 7.621094 L 120.351562 52.378906 C 120.351562 54.074219 120.550781 54.675781 122.039062 54.675781 L 122.636719 54.675781 C 124.125 54.675781 124.324219 54.074219 124.324219 52.378906 Z M 124.324219 7.621094 "/>
<path style=" stroke:none;fill-rule:nonzero;fill:rgb(0%,0%,0%);fill-opacity:1;" d="M 141.503906 59.171875 L 135.148438 59.171875 L 131.472656 0.929688 L 136.640625 0.929688 L 138.023438 23.605469 C 138.523438 31.996094 138.820312 38.992188 138.917969 44.484375 C 139.121094 38.992188 139.417969 31.996094 139.914062 23.605469 L 141.304688 0.929688 L 146.167969 0.929688 L 147.460938 24.507812 C 147.957031 32.898438 148.257812 39.089844 148.453125 44.585938 C 148.550781 39.089844 148.851562 32.101562 149.347656 23.808594 L 150.738281 1.03125 L 155.402344 1.03125 L 151.730469 59.269531 L 145.378906 59.269531 L 144.28125 40.589844 C 143.886719 33.796875 143.589844 26.703125 143.488281 19.90625 C 143.289062 26.601562 143.191406 33.699219 142.792969 40.589844 Z M 141.503906 59.171875 "/>
<path style=" stroke:none;fill-rule:nonzero;fill:rgb(0%,0%,0%);fill-opacity:1;" d="M 162.75 27.304688 C 162.253906 23.40625 161.960938 19.011719 161.5625 15.214844 C 161.660156 19.011719 161.660156 23.605469 161.660156 27.304688 L 161.660156 59.171875 L 157.390625 59.171875 L 157.390625 0.828125 L 164.042969 0.828125 L 166.824219 25.804688 C 167.222656 29.796875 167.621094 33.894531 168.015625 37.992188 C 167.914062 33.59375 167.816406 29.5 167.816406 25.804688 L 167.816406 0.828125 L 172.1875 0.828125 L 172.1875 59.070312 L 166.523438 59.070312 Z M 162.75 27.304688 "/>
<path style=" stroke:none;fill-rule:nonzero;fill:rgb(0%,0%,0%);fill-opacity:1;" d="M 175.261719 0.828125 L 180.429688 0.828125 L 180.429688 59.070312 L 175.261719 59.070312 Z M 175.261719 0.828125 "/>
<path style=" stroke:none;fill-rule:nonzero;fill:rgb(0%,0%,0%);fill-opacity:1;" d="M 191.949219 50.679688 L 187.578125 50.679688 L 186.980469 59.070312 L 182.316406 59.070312 L 186.484375 0.828125 L 193.4375 0.828125 L 197.605469 59.070312 L 192.445312 59.070312 Z M 187.875 45.886719 L 191.550781 45.886719 L 191.25 40.191406 C 190.558594 28.601562 190.0625 19.011719 189.664062 9.019531 C 189.363281 19.011719 188.867188 28.304688 188.171875 39.890625 Z M 187.875 45.886719 "/>
</g>
</svg>
